<svg id="Layer_1" data-name="Layer 1" xmlns="http://www.w3.org/2000/svg" viewBox="0 0 576 368"><defs><style>.cls-1{fill:#fff;}</style></defs><title>eye white</title><path class="cls-1" d="M569.35,231.63a48,48,0,0,1,0,48.74C513,376,407.86,440,288,440S63,376.05,6.65,280.37a48,48,0,0,1,0-48.74C63,136,168.14,72,288,72S513,136,569.35,231.63ZM288,392A136,136,0,1,0,152,256,135.93,135.93,0,0,0,288,392Z" transform="translate(0 -72)"/><path class="cls-1" d="M288,152a104,104,0,1,1-91.77,55.06,42.83,42.83,0,1,0,42.83-42.82h0A103.45,103.45,0,0,1,288,152Z" transform="translate(0 -72)"/></svg>